<?xml version="1.0" encoding="UTF-8"?> <svg xmlns="http://www.w3.org/2000/svg" xmlns:xlink="http://www.w3.org/1999/xlink" id="Layer_1" data-name="Layer 1" viewBox="0 0 636 300"><defs><style>.cls-1{fill:#fff;}.cls-2{fill:#f9b642;}.cls-3,.cls-5{fill:none;}.cls-4{fill:#f5f5f5;}.cls-5{stroke:#f5f5f5;stroke-miterlimit:10;stroke-width:6.29px;}.cls-6{fill:#e46138;}.cls-7{fill:#79cadb;}.cls-8{clip-path:url(#clip-path);}.cls-9{clip-path:url(#clip-path-2);}.cls-10{clip-path:url(#clip-path-3);}</style><clipPath id="clip-path"><circle class="cls-1" cx="-88.47" cy="-467.86" r="8"></circle></clipPath><clipPath id="clip-path-2"><circle class="cls-2" cx="-62.47" cy="-467.86" r="8"></circle></clipPath><clipPath id="clip-path-3"><circle class="cls-3" cx="-36.47" cy="-467.86" r="8"></circle></clipPath></defs><title>Artboard 5</title><circle class="cls-4" cx="417.43" cy="162.65" r="9"></circle><circle class="cls-4" cx="451.66" cy="125.61" r="9"></circle><path class="cls-5" d="M344.26,199.22H373a12.36,12.36,0,0,0,12.36-12.36V138a12.36,12.36,0,0,1,12.36-12.36h53.92"></path><line class="cls-5" x1="416.99" y1="208.35" x2="416.99" y2="163.1"></line><path class="cls-6" d="M435.07,266.87c0-.49-.48-.91-1.12-1V233.08c.64-.12,1.12-.53,1.12-1s-.66-1.07-1.48-1.07-1.48.48-1.48,1.07a1.16,1.16,0,0,0,1,1v32.82a1.16,1.16,0,0,0-1,1c0,.59.66,1.07,1.48,1.07S435.07,267.46,435.07,266.87Z"></path><path class="cls-6" d="M255.15,70.19a1.2,1.2,0,0,0-1.12-1V36.4c.64-.12,1.12-.54,1.12-1s-.67-1.06-1.48-1.06-1.48.48-1.48,1.06a1.14,1.14,0,0,0,1,1V69.19a1.15,1.15,0,0,0-1,1c0,.59.66,1.06,1.48,1.06S255.15,70.78,255.15,70.19Z"></path><path class="cls-6" d="M422,48.27a1.2,1.2,0,0,0-1.12-1V14.48c.64-.12,1.12-.54,1.12-1s-.67-1.06-1.48-1.06-1.48.48-1.48,1.06a1.15,1.15,0,0,0,1,1V47.27a1.15,1.15,0,0,0-1,1c0,.59.66,1.06,1.48,1.06S422,48.86,422,48.27Z"></path><path class="cls-6" d="M294.87,276.49a2.25,2.25,0,0,0-1.7-2.18V263.17a2.25,2.25,0,1,0-1.32-.07v11.28a2.25,2.25,0,1,0,3,2.11Z"></path><path class="cls-6" d="M380.67,73a2.26,2.26,0,0,0-1.7-2.18V59.71a2.26,2.26,0,1,0-1.33-.07V70.92a2.25,2.25,0,1,0,3,2.11Z"></path><path class="cls-6" d="M197.88,236a2.26,2.26,0,0,0-1.7-2.18V222.64a2.24,2.24,0,1,0-1.33-.06v11.27a2.25,2.25,0,1,0,3,2.11Z"></path><circle class="cls-4" cx="451.66" cy="100.83" r="9"></circle><line class="cls-5" x1="454.36" y1="100.86" x2="373.3" y2="100.86"></line><circle class="cls-4" cx="219.77" cy="177.04" r="9"></circle><circle class="cls-4" cx="192.02" cy="137.57" r="9"></circle><path class="cls-5" d="M250.23,95.29V126a12.36,12.36,0,0,1-12.36,12.36H188.15"></path><path class="cls-5" d="M233.4,83.11v6A12.36,12.36,0,0,1,221,101.52H186.09"></path><line class="cls-5" x1="220.21" y1="208.35" x2="220.21" y2="177.1"></line><circle class="cls-4" cx="250.08" cy="164.78" r="9"></circle><line class="cls-5" x1="250.52" y1="224.68" x2="250.52" y2="163.49"></line><circle class="cls-4" cx="185.54" cy="100.83" r="9"></circle><path class="cls-3" d="M263.15,120.32c0-4.42.22-8.79.62-13.1a133.26,133.26,0,0,0-99.41-29A134.33,134.33,0,0,0,312.81,226.66v0A138.36,138.36,0,0,1,263.15,120.32Z"></path><path class="cls-3" d="M323.18,226.63v0A134.32,134.32,0,0,0,471.64,78.2a133.22,133.22,0,0,0-99.41,29q.61,6.47.62,13.1A138.36,138.36,0,0,1,323.18,226.63Z"></path><path class="cls-7" d="M372.23,107.22a138.1,138.1,0,0,0-10.53,9.49,133.22,133.22,0,0,0-39.37,94.56v.23a140.07,140.07,0,0,0,.85,15.13,138.36,138.36,0,0,0,49.67-106.31Q372.85,113.69,372.23,107.22Z"></path><path class="cls-7" d="M263.77,107.22c-.4,4.31-.62,8.68-.62,13.1a138.36,138.36,0,0,0,49.67,106.31,139.29,139.29,0,0,0,.85-15.08v-.32a133.17,133.17,0,0,0-39.37-94.52A138.1,138.1,0,0,0,263.77,107.22Z"></path><path class="cls-7" d="M370.92,97.23A138.55,138.55,0,0,0,322.33,13.3V162.39a142.9,142.9,0,0,1,33.24-51.81A146.17,146.17,0,0,1,370.92,97.23Z"></path><path class="cls-7" d="M265.08,97.24a144.91,144.91,0,0,1,15.35,13.34,142.9,142.9,0,0,1,33.24,51.81V13.3A138.54,138.54,0,0,0,265.08,97.24Z"></path><path d="M322.33,210.22v0Z"></path><path d="M313.67,211.23v0Z"></path><path class="cls-4" d="M479.82,73.73l-.44-3.27L476.11,70A142,142,0,0,0,370.92,97.23c.55,3.3,1,6.63,1.31,10a133.22,133.22,0,0,1,99.41-29A134.32,134.32,0,0,1,331.26,227.32l-1.13-.07-2.4-.17c-3.27-.27-6.52-.66-9.73-1.16-1.72.27-3.45.51-5.18.71h0c-1.51.18-3,.32-4.54.45l-2.47.17-1,.06A134.32,134.32,0,0,1,164.36,78.2a133.26,133.26,0,0,1,99.41,29q.48-5,1.31-10A141.92,141.92,0,0,0,159.89,70l-3.27.44-.44,3.27A143,143,0,0,0,297.52,236.18a146.53,146.53,0,0,0,16.15-.91v49.8a4.33,4.33,0,1,0,8.66,0v-49.8a146.53,146.53,0,0,0,16.15.91A143,143,0,0,0,479.82,73.73Z"></path><circle class="cls-1" cx="-88.47" cy="-467.86" r="8"></circle><g class="cls-8"><rect class="cls-1" x="-1062.47" y="-1433.86" width="2000" height="5548"></rect></g><circle class="cls-2" cx="-62.47" cy="-467.86" r="8"></circle><g class="cls-9"><rect class="cls-2" x="-1062.47" y="-1433.86" width="2000" height="5548"></rect></g></svg> 